<svg width="18" height="18" viewBox="0 0 18 18" fill="none" xmlns="http://www.w3.org/2000/svg">
<g clip-path="url(#clip0_120_3787)">
<path d="M0 13.5C0 14.0304 0.210714 14.5391 0.585786 14.9142C0.960859 15.2893 1.46957 15.5 2 15.5H16C16.5304 15.5 17.0391 15.2893 17.4142 14.9142C17.7893 14.5391 18 14.0304 18 13.5V12H0V13.5ZM16 2.5H2C1.46957 2.5 0.960859 2.71071 0.585786 3.08579C0.210714 3.46086 0 3.96957 0 4.5L0 6H18V4.5C18 3.96957 17.7893 3.46086 17.4142 3.08579C17.0391 2.71071 16.5304 2.5 16 2.5Z" fill="#CE1126"/>
<path d="M0 12H18V6H0V12ZM9 6.5C9.32834 6.50003 9.65345 6.56474 9.95679 6.69042C10.2601 6.8161 10.5357 7.00029 10.7679 7.23248C11 7.46468 11.1842 7.74032 11.3098 8.04368C11.4354 8.34703 11.5 8.67216 11.5 9.0005C11.5 9.32884 11.4353 9.65395 11.3096 9.95728C11.1839 10.2606 10.9997 10.5362 10.7675 10.7684C10.5353 11.0005 10.2597 11.1847 9.95632 11.3103C9.65297 11.4359 9.32784 11.5005 8.9995 11.5005C8.33639 11.5004 7.70047 11.237 7.23163 10.768C6.76279 10.2991 6.49943 9.66311 6.4995 9C6.49957 8.33689 6.76305 7.70097 7.23198 7.23213C7.70092 6.76329 8.33689 6.49993 9 6.5Z" fill="#002868"/>
<path d="M9 11.5C10.3807 11.5 11.5 10.3807 11.5 9C11.5 7.61929 10.3807 6.5 9 6.5C7.61929 6.5 6.5 7.61929 6.5 9C6.5 10.3807 7.61929 11.5 9 11.5Z" fill="white"/>
</g>
<defs>
<clipPath id="clip0_120_3787">
<rect width="18" height="18" fill="white"/>
</clipPath>
</defs>
</svg>
