<svg xmlns="http://www.w3.org/2000/svg" viewBox="0 0 407 182.59"><g id="Layer_2" data-name="Layer 2"><g id="Layer_1-2" data-name="Layer 1"><polygon points="116.22 122.13 119.09 122.13 125.42 134.02 127.04 122.13 130.22 122.13 127.86 139.61 125.05 139.61 118.66 127.62 117.03 139.61 113.86 139.61 116.22 122.13" fill="#4d4d4f"/><path d="M141.27,135.83l2.8,1.48a6.47,6.47,0,0,1-2.5,1.92,8,8,0,0,1-3.45.72,6.32,6.32,0,0,1-4.65-1.68,5.71,5.71,0,0,1-1.72-4.4,7.29,7.29,0,0,1,2.15-5.34,6.88,6.88,0,0,1,5.13-2.17,6.46,6.46,0,0,1,3.26.8,5.71,5.71,0,0,1,2.23,2.31,6.67,6.67,0,0,1,.8,3.31,8.24,8.24,0,0,1-.11,1.31H134.92a2.89,2.89,0,0,0,.86,2.14,3.29,3.29,0,0,0,2.33.8,4.69,4.69,0,0,0,3.16-1.2m.83-4.08a3.48,3.48,0,0,0-1.19-1.79,3.36,3.36,0,0,0-2-.62,3.74,3.74,0,0,0-2.12.62,4,4,0,0,0-1.4,1.79Z" fill="#4d4d4f"/><polygon points="147.24 126.7 150.28 126.7 152.09 133.64 155.85 126.7 157.09 126.7 158.91 133.64 162.67 126.7 166.05 126.7 159.02 139.61 157.45 139.61 155.71 132.8 152.04 139.61 150.55 139.61 147.24 126.7" fill="#4d4d4f"/><path d="M191,124.4l-2.38,2.22a5.08,5.08,0,0,0-1.89-1.37,6.33,6.33,0,0,0-2.44-.49,7.33,7.33,0,0,0-6.13,3.44,6.19,6.19,0,0,0-.94,3.28,5.34,5.34,0,0,0,1.63,4A5.87,5.87,0,0,0,183.1,137a7.48,7.48,0,0,0,4.77-1.57l1.92,2.54a11.67,11.67,0,0,1-6.89,2.11,9.42,9.42,0,0,1-4.68-1.06,7.55,7.55,0,0,1-3.13-3.06,8.73,8.73,0,0,1-1.19-4.39,9.6,9.6,0,0,1,1.39-4.85,9.75,9.75,0,0,1,3.77-3.66,10.31,10.31,0,0,1,5.16-1.34A9.42,9.42,0,0,1,191,124.4" fill="#4d4d4f"/><path d="M200,126.36a6.36,6.36,0,0,1,3.17.8,5.19,5.19,0,0,1,2.17,2.25,6.76,6.76,0,0,1,.78,3.28,6.89,6.89,0,0,1-2.15,5.13,7.22,7.22,0,0,1-5.33,2.14,5.81,5.81,0,0,1-4.39-1.68,5.9,5.9,0,0,1-1.62-4.36,7.44,7.44,0,0,1,7.37-7.56m-.2,3a3.58,3.58,0,0,0-3,1.4,5,5,0,0,0-1,3,3.36,3.36,0,0,0,.84,2.35,3.12,3.12,0,0,0,2.28.86,3.64,3.64,0,0,0,3.06-1.35,5,5,0,0,0,1.05-3.07,3.22,3.22,0,0,0-.9-2.32,3.14,3.14,0,0,0-2.3-.89" fill="#4d4d4f"/><path d="M209.78,126.7H213l-.17,1.31a5.57,5.57,0,0,1,3.77-1.65,3.67,3.67,0,0,1,2.74,1,3.62,3.62,0,0,1,1.11,2.69,18.55,18.55,0,0,1-.23,2.28l-1,7.24H216l.95-7.05a11.34,11.34,0,0,0,.14-1.65,1.6,1.6,0,0,0-.44-1.22,1.79,1.79,0,0,0-1.26-.41,2.83,2.83,0,0,0-1.6.53,3.49,3.49,0,0,0-1.25,1.56,16,16,0,0,0-.8,3.66l-.6,4.57H208Z" fill="#4d4d4f"/><path d="M236.18,129.36l-2.65,1.45a3.77,3.77,0,0,0-3.06-1.43,4.44,4.44,0,0,0-2.29.56,3.9,3.9,0,0,0-1.62,1.6,4.34,4.34,0,0,0-.58,2.2,3.11,3.11,0,0,0,.93,2.4,3.61,3.61,0,0,0,2.59.89,4.2,4.2,0,0,0,3.49-1.54l2.47,1.79a7.31,7.31,0,0,1-2.62,2,8.53,8.53,0,0,1-3.51.71,6.55,6.55,0,0,1-4.77-1.68,5.77,5.77,0,0,1-1.75-4.38,7.5,7.5,0,0,1,2.17-5.36,7.41,7.41,0,0,1,5.55-2.19,6.18,6.18,0,0,1,5.65,3" fill="#4d4d4f"/><path d="M247.88,135.83l2.83,1.48a6.65,6.65,0,0,1-2.53,1.92,7.71,7.71,0,0,1-3.43.72,6.42,6.42,0,0,1-4.66-1.68,5.88,5.88,0,0,1-1.7-4.4,7.29,7.29,0,0,1,2.15-5.34,6.93,6.93,0,0,1,5.13-2.17,6.47,6.47,0,0,1,3.25.8,5.41,5.41,0,0,1,2.23,2.31,6.92,6.92,0,0,1,.84,3.31,6.57,6.57,0,0,1-.13,1.31H241.53a2.81,2.81,0,0,0,.9,2.14,3.25,3.25,0,0,0,2.31.8,4.57,4.57,0,0,0,3.14-1.2m.84-4.08a3.15,3.15,0,0,0-1.19-1.79,3.23,3.23,0,0,0-2-.62,3.74,3.74,0,0,0-2.1.62,4.35,4.35,0,0,0-1.43,1.79Z" fill="#4d4d4f"/><path d="M256.33,144.37h-3.18l2.44-17.67h3.12l-.19,1.39a6.06,6.06,0,0,1,1.92-1.34,4.78,4.78,0,0,1,2-.39,4.85,4.85,0,0,1,4,1.88,6.84,6.84,0,0,1,1.52,4.4,7.26,7.26,0,0,1-1,3.65,6.9,6.9,0,0,1-2.56,2.71,6.65,6.65,0,0,1-3.37.95,4.56,4.56,0,0,1-2.21-.55,4.22,4.22,0,0,1-1.66-1.59Zm5.31-15.19a3.67,3.67,0,0,0-2,.52,4.13,4.13,0,0,0-1.46,1.66,5,5,0,0,0-.59,2.28,3.47,3.47,0,0,0,.87,2.46,3.06,3.06,0,0,0,2.33.93,3.68,3.68,0,0,0,2.81-1.25,4.34,4.34,0,0,0,1.15-3.22,3.42,3.42,0,0,0-.86-2.45,2.89,2.89,0,0,0-2.26-.93" fill="#4d4d4f"/><polygon points="272.27 121.89 275.42 121.89 274.78 126.7 276.78 126.7 276.39 129.42 274.38 129.42 273.03 139.61 269.84 139.61 271.25 129.42 269.69 129.42 270.07 126.7 271.62 126.7 272.27 121.89" fill="#4d4d4f"/><path d="M301.55,124.4l-2.39,2.22a4.71,4.71,0,0,0-1.89-1.37,6.06,6.06,0,0,0-2.4-.49,7.13,7.13,0,0,0-3.53.94,7.24,7.24,0,0,0-2.62,2.5,6.36,6.36,0,0,0-.92,3.28,5.19,5.19,0,0,0,1.63,4,5.81,5.81,0,0,0,4.22,1.57,7.47,7.47,0,0,0,4.76-1.57l1.94,2.54a11.75,11.75,0,0,1-6.93,2.11,9.74,9.74,0,0,1-4.7-1.06,8,8,0,0,1-3.09-3.06,8.71,8.71,0,0,1-1.16-4.39,9.29,9.29,0,0,1,1.37-4.85,9.93,9.93,0,0,1,3.76-3.66,10.34,10.34,0,0,1,5.16-1.34,9.38,9.38,0,0,1,6.79,2.68" fill="#4d4d4f"/><path d="M310.54,126.36a6.09,6.09,0,0,1,3.14.8,5.61,5.61,0,0,1,2.2,2.25,6.67,6.67,0,0,1,.8,3.28,6.93,6.93,0,0,1-2.19,5.13A7.16,7.16,0,0,1,309.2,140a5.69,5.69,0,0,1-6.05-6,7.43,7.43,0,0,1,7.39-7.56m-.21,3a3.44,3.44,0,0,0-3,1.4,5,5,0,0,0-1.05,3,3.27,3.27,0,0,0,.84,2.35,3,3,0,0,0,2.26.86,3.62,3.62,0,0,0,3-1.35,4.8,4.8,0,0,0,1.05-3.07,3,3,0,0,0-3.18-3.21" fill="#4d4d4f"/><path d="M320.32,126.7h3.17L323.3,128a5.59,5.59,0,0,1,3.8-1.65,3.76,3.76,0,0,1,2.74,1,3.54,3.54,0,0,1,1.06,2.69,15.43,15.43,0,0,1-.19,2.28l-1,7.24h-3.19l1-7.05a11.34,11.34,0,0,0,.14-1.65,1.6,1.6,0,0,0-.44-1.22,1.77,1.77,0,0,0-1.27-.41,2.76,2.76,0,0,0-1.6.53,3.69,3.69,0,0,0-1.24,1.56,15.84,15.84,0,0,0-.77,3.66l-.59,4.57h-3.21Z" fill="#4d4d4f"/><path d="M342,128.5l-1.53,2.41a4.4,4.4,0,0,0-1.2-1.28,2.56,2.56,0,0,0-1.22-.4,1.17,1.17,0,0,0-.74.23.64.64,0,0,0-.29.55,1,1,0,0,0,.23.56,10.88,10.88,0,0,0,1.38,1.1,9.31,9.31,0,0,1,2.4,2.25,4,4,0,0,1,.6,2,4.09,4.09,0,0,1-1.22,2.74A4.55,4.55,0,0,1,337,140a5.39,5.39,0,0,1-2.39-.53,8.25,8.25,0,0,1-2.33-1.92l2-2.26a3.65,3.65,0,0,0,2.9,1.74,1.59,1.59,0,0,0,1-.29,1,1,0,0,0,.35-.71,1.2,1.2,0,0,0-.28-.69,9.82,9.82,0,0,0-1.54-1.25,9.31,9.31,0,0,1-2-1.8,3.63,3.63,0,0,1-.78-2.2,3.3,3.3,0,0,1,1.22-2.66,4.5,4.5,0,0,1,2.9-1,4.67,4.67,0,0,1,2.23.56,4.6,4.6,0,0,1,1.8,1.57" fill="#4d4d4f"/><path d="M345.69,126.7h3.14l-.9,6.59a15,15,0,0,0-.14,1.66,1.91,1.91,0,0,0,.58,1.43,2.19,2.19,0,0,0,1.56.55,2.35,2.35,0,0,0,1.86-.72,5.62,5.62,0,0,0,1-3.05l.88-6.47h3.16l-.91,6.94a10.3,10.3,0,0,1-1.11,3.66,5.28,5.28,0,0,1-2,2,5.76,5.76,0,0,1-2.92.69,5.13,5.13,0,0,1-3.79-1.37,4.73,4.73,0,0,1-1.41-3.54,22.55,22.55,0,0,1,.32-3.43Z" fill="#4d4d4f"/><polygon points="360.55 121.69 363.7 121.69 361.29 139.61 358.1 139.61 360.55 121.69" fill="#4d4d4f"/><polygon points="366.74 121.89 369.86 121.89 369.21 126.7 371.23 126.7 370.86 129.42 368.86 129.42 367.46 139.61 364.31 139.61 365.69 129.42 364.13 129.42 364.5 126.7 366.06 126.7 366.74 121.89" fill="#4d4d4f"/><path d="M373,126.7h3.16l-1.75,12.91h-3.16Zm2.17-5.31a2,2,0,0,1,1.42.58,2,2,0,0,1,.57,1.39,2,2,0,0,1-.57,1.38,2,2,0,0,1-1.42.58,2,2,0,0,1-1.38-3.35,1.91,1.91,0,0,1,1.38-.58" fill="#4d4d4f"/><path d="M379.22,126.7h3.19l-.19,1.31a5.54,5.54,0,0,1,3.77-1.65,3.65,3.65,0,0,1,3.82,3.74,17.33,17.33,0,0,1-.2,2.28l-1,7.24h-3.16l.95-7.05c.08-.74.14-1.28.14-1.65a1.6,1.6,0,0,0-.44-1.22,1.79,1.79,0,0,0-1.29-.41,2.67,2.67,0,0,0-1.57.53,3.29,3.29,0,0,0-1.24,1.56,15.8,15.8,0,0,0-.81,3.66l-.59,4.57h-3.16Z" fill="#4d4d4f"/><path d="M403.5,126.7h3.17l-1.5,10.38a17.65,17.65,0,0,1-.84,4,5.89,5.89,0,0,1-2.37,2.54,7.75,7.75,0,0,1-4.16,1,7.83,7.83,0,0,1-3.6-.8,5.53,5.53,0,0,1-2.29-2l2.76-1.42a4.38,4.38,0,0,0,3.26,1.28,4.48,4.48,0,0,0,2-.4,3.26,3.26,0,0,0,1.32-1.12,4.66,4.66,0,0,0,.68-2.09,6,6,0,0,1-4,1.52,5.72,5.72,0,0,1-2.88-.75,5.08,5.08,0,0,1-2.06-2.17,6,6,0,0,1-.77-3.06,7.08,7.08,0,0,1,1-3.6,7.59,7.59,0,0,1,2.68-2.69,7.07,7.07,0,0,1,3.53-1,4.63,4.63,0,0,1,2,.43,5.09,5.09,0,0,1,1.77,1.45Zm-3.91,2.65a4,4,0,0,0-3,1.22,4,4,0,0,0-1.21,3,2.89,2.89,0,0,0,.9,2.28,3.23,3.23,0,0,0,2.42.88,4.25,4.25,0,0,0,2.08-.52,3.81,3.81,0,0,0,1.54-1.54,4.08,4.08,0,0,0,.58-2.13,3,3,0,0,0-1-2.28,3.17,3.17,0,0,0-2.37-.91" fill="#4d4d4f"/><path d="M204.84,63.81c0-15.15,4.29-28.63,12.72-40.24A29.74,29.74,0,0,0,209.38,9q-9-9-23.25-9-16.59,0-32,13.87l1.6-11.07H129L114.17,112.34H141l5.1-38.77q3-22.95,6.76-31.25a30.44,30.44,0,0,1,10.43-12.93c4.46-3.08,8.9-4.64,13.31-4.64,4.7,0,8.28,1.2,10.78,3.59s3.74,5.77,3.74,10.22a125.12,125.12,0,0,1-1.22,13.89l-8,59.89H208.6l2.74-20.72c-4.34-8-6.5-17.3-6.5-27.81" fill="#727273"/><path d="M291.65,81.17c-6.65,6.21-15.32,9.3-26.08,9.3-9.23,0-16.54-2.56-21.83-7.65s-8-11.87-8-20.31a37.47,37.47,0,0,1,5.08-18.78,33.88,33.88,0,0,1,13.42-13.44,35.49,35.49,0,0,1,9.11-3.62,44.35,44.35,0,0,1,10.32-1.12q13.35,0,22.28,8.25a66.9,66.9,0,0,1,12.75-18.11c1-1,2-2,3-2.88Q297.08,0,274.23,0q-28.77,0-46.94,18.66T209.12,63.8q0,23.17,14.75,37.25t40.3,14.09A70.51,70.51,0,0,0,294,109a68.7,68.7,0,0,0,10.44-5.92,50.41,50.41,0,0,1-12.74-21.9" fill="#727273"/><path d="M407,25.47,384.26,37.83q-9.67-12.28-26-12.28A44.23,44.23,0,0,0,348,26.67a35.48,35.48,0,0,0-9.13,3.62,34.11,34.11,0,0,0-13.41,13.44,37.28,37.28,0,0,0-5.08,18.79q0,12.66,7.94,20.31c5.29,5.09,12.6,7.65,21.83,7.65q19,0,29.51-13l21.12,14.91A63.42,63.42,0,0,1,378.52,109a70.62,70.62,0,0,1-29.77,6.14c-17.08,0-30.48-4.71-40.31-14.09s-14.75-21.8-14.75-37.24q0-26.46,18.17-45.14C324,6.25,339.59,0,358.8,0Q391,0,407,25.47" fill="#727273"/><path d="M41.64,75.88c16.38-3.64,27.28-20,44.87-10.3a17.73,17.73,0,0,1,7,24.13c-4.73,8.57-15.39,11.39-24.09,7-8-4-15,7.7-15.15,8-1.49,2.73-14,25.39-17.68,32s5.36,8.56,7.74,4.28,17.33-30.1,18.18-31.57,4.47-1.69,3.07,1.22S55.36,132.27,52,138.45s5.43,8.59,8.66,2.11,13.12-26.11,14-27.7,4.8-1.63,2.86,2.45-6.57,14.13-9.52,20.8,5.37,5.26,7.11,2.08c28.38-51.3,34.77-64.43,38.09-71.91,3.1-7-29.38-26.2-32.6-20.34s-12,3.93-20,7.18S48,60.66,44.18,63.56A42.47,42.47,0,0,1,33.84,69c-3,1.25-1.86,9,7.8,6.84" fill="#00adee"/><path d="M35.36,126.47c5.34-8.28,14.15-22.11,15.31-23.78,2.27-3.2-4.83-5.1-7.65-3.6a10.52,10.52,0,0,0-4.59,4c-2.1,3.6-9.85,18.23-10.45,19.31-2.72,4.07,3.63,10.86,7.38,4.07" fill="#00adee"/><path d="M71.76,68.53c-16.37,3.67-27.23,20-44.87,10.39a17.74,17.74,0,0,1-7-24.09c4.75-8.62,15.39-11.44,24.13-7,8,4,14.94-7.74,15.12-8,1.49-2.71,14-25.37,17.61-32S71.32-.76,69,3.56s-17.28,30.1-18.1,31.57-4.48,1.71-3.11-1.2S57.89,12.16,61.3,6,55.83-2.6,52.63,3.9,39.57,30,38.69,31.61s-4.77,1.63-2.92-2.43S42.34,15,45.26,8.37s-5.36-5.26-7.13-2.1C9.89,57.65,3.52,70.78.21,78.29c-3.11,7,29.4,26.14,32.65,20.27s12-4,20-7.23,12.53-7.55,16.31-10.45a42.17,42.17,0,0,1,10.35-5.5c3-1.27,1.89-9-7.76-6.85" fill="#0db04b"/><path d="M77.94,18c-5.32,8.3-14.1,22.11-15.29,23.8-2.23,3.19,4.85,5.07,7.67,3.59a10.38,10.38,0,0,0,4.58-4C77,37.71,84.69,23.09,85.3,22c2.75-4.08-3.61-10.87-7.36-4.05" fill="#0db04b"/><path d="M161.77,168.85c-.33-.88,1.12-1.23,1.41-.57l3.49,8,3.23-6.71a.75.75,0,0,1,1.42,0l3.28,6.73,3.41-7.94c.29-.76,1.74-.39,1.37.49l-4.07,9.51a.79.79,0,0,1-1.37,0l-3.27-6.87-3.38,6.87a.78.78,0,0,1-1.39,0Z" fill="#4d4d4f"/><path d="M187.31,168.21a5.09,5.09,0,0,1,3.79,5.13v0c0,.45-.17.94-1,.94H182a3.67,3.67,0,0,0,3.74,3.07,4.46,4.46,0,0,0,2.72-.86c.71-.65,1.78.19,1,1a5.22,5.22,0,0,1-3.64,1.23,5.27,5.27,0,0,1-4.15-1.82c-2.21-2.9-1.25-7.61,2.56-8.67a5.71,5.71,0,0,1,3.07,0ZM182,173h7.71a3.75,3.75,0,0,0-2.81-3.48h0a4.15,4.15,0,0,0-2.21,0A3.67,3.67,0,0,0,182,173" fill="#4d4d4f"/><path d="M203.77,168.17a.65.65,0,1,1,0,1.29h-2.23V175c0,1.17.19,2.39,1.58,2.39a2.3,2.3,0,0,0,1-.22c.86-.49,1.53.71.61,1.23a3,3,0,0,1-1.58.35c-2.45,0-3.05-1.8-3.05-3.74v-5.53h-1.35a.65.65,0,1,1,0-1.29h1.35V165.8a.74.74,0,0,1,1.48,0v2.38h2.23Z" fill="#4d4d4f"/><path d="M215.66,172.57a3.16,3.16,0,0,0-3.17-3.19,3.65,3.65,0,0,0-3.85,3.49V178a.68.68,0,0,1-.74.74.71.71,0,0,1-.77-.74V165.72c0-.88,1.51-.86,1.51,0V170a4.19,4.19,0,0,1,3.86-2,4.47,4.47,0,0,1,4.64,4.58V178a.68.68,0,0,1-.73.74.71.71,0,0,1-.76-.74v-5.39Z" fill="#4d4d4f"/><path d="M221.26,166.63a.77.77,0,0,1-1.53,0v-.92a.77.77,0,0,1,1.53,0Zm-1.51,2.22c0-.88,1.49-.9,1.49,0v9.23c0,.9-1.49.88-1.49,0Z" fill="#4d4d4f"/><path d="M232.57,172.57a3.16,3.16,0,0,0-3.17-3.19,3.89,3.89,0,0,0-3.85,3.86V178a.66.66,0,0,1-.74.71A.69.69,0,0,1,224,178v-9.17a.74.74,0,0,1,1.47,0v1.26a4.17,4.17,0,0,1,3.91-2.13,4.47,4.47,0,0,1,4.64,4.58V178a.65.65,0,0,1-.73.71.69.69,0,0,1-.76-.71Z" fill="#4d4d4f"/><path d="M243.8,168.29c.8-.71,1.84.29,1.06,1L241,172.85l4.22,4.64a.73.73,0,1,1-1.17.88l-4.17-4.69-1.21,1.08V178a.75.75,0,0,1-1.49,0V165.72c0-.84,1.49-.84,1.49,0v7.38l1.41-1.39Z" fill="#4d4d4f"/><path d="M259.6,178.46l0,0a5.07,5.07,0,0,1-2,.39,3.79,3.79,0,0,1-3.36-1.8v1a.62.62,0,0,1-.69.71.68.68,0,0,1-.76-.71V165.63a.75.75,0,0,1,1.49,0v4.08a3.75,3.75,0,0,1,3.32-1.66,5.07,5.07,0,0,1,5.24,5.1,5.32,5.32,0,0,1-3.3,5.31m.29-1.82a4.25,4.25,0,0,0,1.51-3.48,5.19,5.19,0,0,0-.3-1.52,3.76,3.76,0,0,0-3.5-2.19,3.17,3.17,0,0,0-3.25,3.15v1.62a3.19,3.19,0,0,0,3.44,3.19,3.81,3.81,0,0,0,2.1-.77" fill="#4d4d4f"/><path d="M266.82,166.63a.77.77,0,0,1-1.53,0v-.92a.77.77,0,0,1,1.53,0Zm-1.51,2.22c0-.88,1.49-.9,1.49,0v9.23c0,.9-1.49.88-1.49,0Z" fill="#4d4d4f"/><path d="M279.07,178.09c0,3-2.25,4.5-5.05,4.5a5.32,5.32,0,0,1-3.91-1.41.73.73,0,1,1,1-1.06,4.25,4.25,0,0,0,2.9,1c1.86,0,3.6-.94,3.6-3V177a3.66,3.66,0,0,1-3.27,1.8,5.29,5.29,0,0,1-2.21-.39,5.12,5.12,0,0,1-3.11-4.7,5.18,5.18,0,0,1,5.2-5.67,3.89,3.89,0,0,1,3.36,1.6v-.78a.68.68,0,0,1,.74-.74.71.71,0,0,1,.76.74v9.25Zm-7.06-7.9h0a4.17,4.17,0,0,0-1.52,3.48,4.62,4.62,0,0,0,.31,1.52,3.68,3.68,0,0,0,3.5,2.19h0a3.24,3.24,0,0,0,3.27-3.14v-1.62a2.8,2.8,0,0,0-1.74-2.8,3.69,3.69,0,0,0-3.82.37" fill="#4d4d4f"/><rect x="2.75" y="151" width="404.24" height="1.48" fill="#231f20"/></g></g></svg>