<svg width="41" height="41" viewBox="0 0 41 41" fill="none" xmlns="http://www.w3.org/2000/svg">
<path d="M19.8893 15.062C20.054 14.6028 20.7116 14.6028 20.8763 15.062L21.3268 16.3177C21.3796 16.4647 21.4967 16.5804 21.6455 16.6324L22.9169 17.0774C23.3819 17.2401 23.3819 17.8895 22.9169 18.0522L21.6455 18.4972C21.4967 18.5493 21.3796 18.6649 21.3268 18.8119L20.8763 20.0676C20.7116 20.5268 20.054 20.5268 19.8893 20.0676L19.4388 18.8119C19.386 18.6649 19.269 18.5493 19.1201 18.4972L17.8487 18.0522C17.3838 17.8895 17.3838 17.2401 17.8487 17.0774L19.1201 16.6324C19.269 16.5804 19.386 16.4647 19.4388 16.3177L19.8893 15.062Z" fill="#9295AB"/>
<path d="M24.8585 20.6416C24.9683 20.3355 25.4067 20.3355 25.5165 20.6416L25.8169 21.4788C25.852 21.5768 25.9301 21.6539 26.0293 21.6886L26.8769 21.9852C27.1869 22.0937 27.1869 22.5267 26.8769 22.6351L26.0293 22.9318C25.9301 22.9665 25.852 23.0436 25.8169 23.1416L25.5165 23.9787C25.4067 24.2849 24.9683 24.2849 24.8585 23.9787L24.5581 23.1416C24.523 23.0436 24.4449 22.9665 24.3457 22.9318L23.4981 22.6351C23.1881 22.5267 23.1881 22.0937 23.4981 21.9852L24.3457 21.6886C24.4449 21.6539 24.523 21.5768 24.5581 21.4788L24.8585 20.6416Z" fill="#9295AB"/>
<path d="M27.3559 7.62356C27.5944 6.95881 28.5462 6.95881 28.7847 7.62356L29.6021 9.90191C29.6784 10.1147 29.8479 10.2821 30.0634 10.3575L32.3702 11.1648C33.0433 11.4003 33.0433 12.3404 32.3702 12.576L30.0634 13.3833C29.8479 13.4587 29.6784 13.626 29.6021 13.8388L28.7847 16.1172C28.5462 16.7819 27.5944 16.7819 27.3559 16.1172L26.5385 13.8388C26.4622 13.626 26.2927 13.4587 26.0772 13.3833L23.7704 12.576C23.0974 12.3404 23.0974 11.4003 23.7704 11.1648L26.0772 10.3575C26.2927 10.2821 26.4622 10.1147 26.5385 9.90191L27.3559 7.62356Z" fill="#9295AB"/>
<path d="M5.125 22.9936C5.125 30.1078 11.0601 35.875 18.3814 35.875C24.0176 35.875 28.8322 32.4571 30.75 27.6379C29.2312 28.3312 27.5352 28.7187 25.7461 28.7187C19.2382 28.7187 13.9626 23.5922 13.9626 17.2685C13.9626 14.6238 14.8854 12.1885 16.4351 10.25C10.0365 11.1648 5.125 16.5218 5.125 22.9936Z" stroke="#9295AB" stroke-width="1.5" stroke-linecap="round" stroke-linejoin="round"/>
</svg>
