<svg width="275" height="211" viewBox="0 0 275 211" fill="none" xmlns="http://www.w3.org/2000/svg">
<g filter="url(#filter0_f_5845_9345)">
<ellipse cx="135.027" cy="169.451" rx="100.328" ry="19.3545" fill="#D9D9D9"/>
</g>
<path d="M136.129 208.083C193.59 208.083 240.171 161.502 240.171 104.041C240.171 46.5809 193.59 0 136.129 0C78.6688 0 32.0879 46.5809 32.0879 104.041C32.0879 161.502 78.6688 208.083 136.129 208.083Z" fill="white"/>
<g filter="url(#filter1_d_5845_9345)">
<path d="M223.281 70.4103L134.125 132.63L44.9688 70.4103L126.584 13.4297C128.798 11.8871 131.431 11.06 134.129 11.06C136.827 11.06 139.46 11.8871 141.673 13.4297L157.953 24.811L162.216 27.7711L205.136 57.7414L209.658 60.916L223.281 70.4103Z" fill="#F8F9FC"/>
</g>
<path d="M119.628 122.513L44.9688 175.601V70.4092L119.628 122.513Z" fill="#F5F5F5"/>
<path d="M148.629 122.513L223.288 175.601V70.4092L148.629 122.513Z" fill="#F5F5F5"/>
<path d="M44.9688 175.603L126.488 117.646C128.719 116.057 131.39 115.203 134.129 115.203C136.868 115.203 139.538 116.057 141.769 117.646L223.281 175.603H44.9688Z" fill="#EFEFEF"/>
<g filter="url(#filter2_d_5845_9345)">
<path d="M54.3892 51.3485C40.721 57.7422 26.0333 61.678 10.9996 62.9755C13.031 67.6976 27.4645 91.3347 70.3106 110.811C71.4688 110.989 98.2243 98.5425 112.907 90.0071C112.408 90.7199 67.2991 74.1214 54.3892 51.3485Z" fill="white"/>
</g>
<path d="M55.446 63.1008C54.817 62.6645 54.0204 62.5467 53.292 62.7823L29.3782 70.5191C28.5215 70.7963 28.2163 71.8514 28.7927 72.5431C29.2568 73.1001 30.0166 73.3129 30.7025 73.078L55.2265 64.6781C55.9186 64.4411 56.047 63.5178 55.446 63.1008Z" fill="#FDC604"/>
<path d="M55.0315 72.6298C54.4249 72.0603 53.5543 71.8705 52.7658 72.1359L36.2105 77.7075C35.4805 77.9532 35.2228 78.8539 35.7123 79.4485C36.1123 79.9344 36.7713 80.1217 37.367 79.9189L54.7341 74.0056C55.3204 73.806 55.483 73.0538 55.0315 72.6298Z" fill="#FDC604"/>
<path d="M63.9188 77.3486C63.2859 76.8417 62.4345 76.7014 61.6725 76.9784L42.6029 83.9092C41.8544 84.1812 41.6292 85.1307 42.1757 85.7099C42.5938 86.1531 43.2358 86.3043 43.8078 86.0944L63.6817 78.8014C64.2995 78.5747 64.4325 77.7599 63.9188 77.3486Z" fill="#FDC604"/>
<path d="M70.5858 91.6551C69.9995 91.0072 69.0756 90.7856 68.2593 91.0971L57.361 95.2559C56.6918 95.5113 56.4505 96.3345 56.876 96.9107C57.2747 97.4507 57.9854 97.6571 58.6114 97.4147L70.2927 92.8904C70.7965 92.6953 70.9482 92.0558 70.5858 91.6551Z" fill="#FDC604"/>
<g filter="url(#filter3_d_5845_9345)">
<path d="M212.386 84.3118C228.96 92.0645 246.769 96.8369 264.999 98.4102C262.536 104.136 245.034 132.797 193.081 156.414C191.676 156.63 159.234 141.537 141.43 131.188C142.035 132.052 196.732 111.925 212.386 84.3118Z" fill="white"/>
</g>
<path d="M211.104 98.562C211.867 98.0328 212.833 97.89 213.716 98.1757L242.713 107.557C243.752 107.893 244.122 109.173 243.423 110.011C242.86 110.687 241.939 110.945 241.107 110.66L211.37 100.474C210.531 100.187 210.376 99.0676 211.104 98.562Z" fill="#FDC604"/>
<path d="M202.984 106.285C203.72 105.594 204.775 105.364 205.732 105.686L225.806 112.442C226.691 112.74 227.003 113.832 226.41 114.553C225.925 115.142 225.126 115.369 224.404 115.123L203.345 107.953C202.634 107.711 202.437 106.799 202.984 106.285Z" fill="#FDC604"/>
<path d="M194.641 112.695C195.409 112.081 196.441 111.911 197.365 112.247L220.488 120.651C221.396 120.98 221.669 122.132 221.006 122.834C220.499 123.371 219.721 123.555 219.027 123.3L194.929 114.457C194.18 114.182 194.019 113.194 194.641 112.695Z" fill="#FDC604"/>
<path d="M175.867 125.522C176.578 124.737 177.698 124.468 178.688 124.846L191.903 129.889C192.714 130.198 193.007 131.196 192.491 131.895C192.007 132.55 191.146 132.8 190.387 132.506L176.222 127.02C175.611 126.784 175.427 126.008 175.867 125.522Z" fill="#FDC604"/>
<path d="M184.493 118.672C185.275 118.182 186.241 118.08 187.108 118.397L217.556 129.53C218.529 129.886 218.765 131.155 217.985 131.836C217.469 132.287 216.747 132.42 216.104 132.183L184.695 120.613C183.848 120.301 183.728 119.152 184.493 118.672Z" fill="#FDC604"/>
<path d="M77.1793 80.4747C76.5342 80.07 75.7382 79.9862 75.023 80.2477L49.9122 89.4291C49.1096 89.7225 48.9151 90.7689 49.5587 91.3311C49.9844 91.7029 50.5791 91.8126 51.1095 91.6173L77.0128 82.0751C77.7114 81.8177 77.8099 80.8703 77.1793 80.4747Z" fill="#FDC604"/>
<path d="M217.976 20.2674C220.308 20.2676 222.198 22.1586 222.198 24.491C222.198 26.8233 220.308 28.7135 217.976 28.7137C215.643 28.7137 213.752 26.8234 213.752 24.491C213.752 22.1585 215.643 20.2674 217.976 20.2674Z" stroke="#EFEFF5" stroke-width="2.61276"/>
<circle cx="63.9283" cy="185.647" r="4.22349" stroke="#EFEFF5" stroke-width="2.61276"/>
<circle cx="197.435" cy="194.336" r="4.22349" stroke="#EFEFF5" stroke-width="2.61276"/>
<path d="M78.4853 29.7465C79.0002 27.6135 82.0341 27.6135 82.549 29.7465L83.9042 35.3605C84.0882 36.1227 84.6834 36.7179 85.4456 36.9019L91.0596 38.2571C93.1926 38.772 93.1926 41.8059 91.0596 42.3208L85.4456 43.676C84.6834 43.86 84.0882 44.4551 83.9042 45.2173L82.549 50.8314C82.0341 52.9643 79.0002 52.9643 78.4853 50.8314L77.1301 45.2173C76.9461 44.4551 76.351 43.86 75.5888 43.676L69.9747 42.3208C67.8418 41.8059 67.8418 38.7719 69.9747 38.2571L75.5888 36.9019C76.351 36.7179 76.9461 36.1227 77.1301 35.3605L78.4853 29.7465Z" fill="#EFEFF5"/>
<path d="M236.778 167.155C237.293 165.022 240.327 165.022 240.842 167.155L242.197 172.769C242.381 173.531 242.976 174.126 243.739 174.31L249.353 175.665C251.486 176.18 251.486 179.214 249.353 179.729L243.739 181.084C242.976 181.268 242.381 181.863 242.197 182.625L240.842 188.239C240.327 190.372 237.293 190.372 236.778 188.239L235.423 182.625C235.239 181.863 234.644 181.268 233.882 181.084L228.268 179.729C226.135 179.214 226.135 176.18 228.268 175.665L233.882 174.31C234.644 174.126 235.239 173.531 235.423 172.769L236.778 167.155Z" fill="#EFEFF5"/>
<path d="M34.7433 151.175C36.0673 150.963 37.1243 152.263 36.6459 153.516L33.917 160.662C33.4386 161.914 31.7837 162.179 30.938 161.139L26.1142 155.203C25.2686 154.162 25.8665 152.596 27.1905 152.384L34.7433 151.175Z" fill="#EFEFF5"/>
<path d="M240.173 73.22C239.842 71.9207 241.041 70.75 242.332 71.1128L249.696 73.1821C250.987 73.5449 251.401 75.169 250.441 76.1055L244.968 81.4481C244.008 82.3846 242.394 81.9312 242.063 80.6319L240.173 73.22Z" fill="#EFEFF5"/>
<defs>
<filter id="filter0_f_5845_9345" x="12.9262" y="128.323" width="244.201" height="82.2551" filterUnits="userSpaceOnUse" color-interpolation-filters="sRGB">
<feFlood flood-opacity="0" result="BackgroundImageFix"/>
<feBlend mode="normal" in="SourceGraphic" in2="BackgroundImageFix" result="shape"/>
<feGaussianBlur stdDeviation="10.8865" result="effect1_foregroundBlur_5845_9345"/>
</filter>
<filter id="filter1_d_5845_9345" x="41.4851" y="11.06" width="185.28" height="128.538" filterUnits="userSpaceOnUse" color-interpolation-filters="sRGB">
<feFlood flood-opacity="0" result="BackgroundImageFix"/>
<feColorMatrix in="SourceAlpha" type="matrix" values="0 0 0 0 0 0 0 0 0 0 0 0 0 0 0 0 0 0 127 0" result="hardAlpha"/>
<feOffset dy="3.48368"/>
<feGaussianBlur stdDeviation="1.74184"/>
<feComposite in2="hardAlpha" operator="out"/>
<feColorMatrix type="matrix" values="0 0 0 0 0 0 0 0 0 0 0 0 0 0 0 0 0 0 0.25 0"/>
<feBlend mode="normal" in2="BackgroundImageFix" result="effect1_dropShadow_5845_9345"/>
<feBlend mode="normal" in="SourceGraphic" in2="effect1_dropShadow_5845_9345" result="shape"/>
</filter>
<filter id="filter2_d_5845_9345" x="0.548963" y="44.3812" width="122.809" height="80.3664" filterUnits="userSpaceOnUse" color-interpolation-filters="sRGB">
<feFlood flood-opacity="0" result="BackgroundImageFix"/>
<feColorMatrix in="SourceAlpha" type="matrix" values="0 0 0 0 0 0 0 0 0 0 0 0 0 0 0 0 0 0 127 0" result="hardAlpha"/>
<feOffset dy="3.48368"/>
<feGaussianBlur stdDeviation="5.22552"/>
<feComposite in2="hardAlpha" operator="out"/>
<feColorMatrix type="matrix" values="0 0 0 0 0.0196078 0 0 0 0 0.168627 0 0 0 0 0.396078 0 0 0 0.15 0"/>
<feBlend mode="normal" in2="BackgroundImageFix" result="effect1_dropShadow_5845_9345"/>
<feBlend mode="normal" in="SourceGraphic" in2="effect1_dropShadow_5845_9345" result="shape"/>
</filter>
<filter id="filter3_d_5845_9345" x="121.344" y="82.57" width="153.181" height="101.715" filterUnits="userSpaceOnUse" color-interpolation-filters="sRGB">
<feFlood flood-opacity="0" result="BackgroundImageFix"/>
<feColorMatrix in="SourceAlpha" type="matrix" values="0 0 0 0 0 0 0 0 0 0 0 0 0 0 0 0 0 0 127 0" result="hardAlpha"/>
<feOffset dx="-5.28021" dy="13.0638"/>
<feGaussianBlur stdDeviation="7.40282"/>
<feComposite in2="hardAlpha" operator="out"/>
<feColorMatrix type="matrix" values="0 0 0 0 0.021441 0 0 0 0 0.168056 0 0 0 0 0.395833 0 0 0 0.15 0"/>
<feBlend mode="normal" in2="BackgroundImageFix" result="effect1_dropShadow_5845_9345"/>
<feBlend mode="normal" in="SourceGraphic" in2="effect1_dropShadow_5845_9345" result="shape"/>
</filter>
</defs>
</svg>
