<svg width="275" height="261" viewBox="0 0 275 261" fill="none" xmlns="http://www.w3.org/2000/svg">
<path fill-rule="evenodd" clip-rule="evenodd" d="M2.77486 187.615C3.84563 187.234 4.97242 186.727 5.84135 185.992C6.87335 185.12 7.29305 183.997 7.57489 182.815C7.93674 181.296 8.08132 179.679 8.52009 178.157C8.68256 177.592 8.9952 177.379 9.12936 177.284C9.46843 177.045 9.81118 176.981 10.1336 177.005C10.5158 177.032 11.0407 177.177 11.386 177.818C11.4352 177.909 11.4992 178.049 11.5423 178.24C11.5736 178.381 11.5939 178.819 11.6272 179C11.7103 179.446 11.7798 179.891 11.845 180.339C12.0623 181.831 12.1872 183.097 12.8733 184.467C13.8044 186.327 14.7374 187.464 16.0026 187.968C17.226 188.456 18.6887 188.364 20.5577 187.982C20.7355 187.939 20.9115 187.902 21.0856 187.872C21.9096 187.728 22.6973 188.269 22.8592 189.09C23.021 189.91 22.4974 190.709 21.6807 190.89C21.5103 190.927 21.3423 190.963 21.1761 190.995C18.6506 191.621 15.7269 193.852 14.0278 195.806C13.5041 196.408 12.7373 198.093 11.9552 199.167C11.378 199.96 10.7293 200.482 10.1847 200.667C9.8198 200.791 9.51212 200.772 9.25796 200.709C8.88873 200.618 8.58228 200.418 8.3472 200.1C8.2192 199.926 8.10041 199.693 8.04379 199.395C8.01672 199.251 8.01366 198.887 8.01427 198.722C7.85489 198.174 7.65981 197.639 7.51765 197.085C7.17858 195.765 6.51334 194.93 5.72318 193.826C4.9841 192.792 4.19028 192.143 3.02659 191.625C2.87521 191.588 1.65366 191.289 1.22228 191.117C0.592126 190.866 0.291802 190.444 0.182879 190.217C-0.00235185 189.832 -0.021412 189.495 0.0155111 189.215C0.0702804 188.8 0.256128 188.446 0.585974 188.16C0.790282 187.982 1.09552 187.809 1.50413 187.725C1.81982 187.659 2.65733 187.621 2.77486 187.615ZM9.94103 185.464C9.99765 185.59 10.058 185.717 10.122 185.845C11.4856 188.568 13.0106 190.089 14.8641 190.827L14.9263 190.851C13.6863 191.771 12.5638 192.8 11.7059 193.787C11.3527 194.193 10.885 195.037 10.3798 195.902C9.92073 194.41 9.16996 193.355 8.22596 192.035C7.50473 191.027 6.74904 190.269 5.82042 189.651C6.54104 189.282 7.22842 188.848 7.82719 188.343C8.82411 187.5 9.48318 186.524 9.94103 185.464Z" fill="#E3E3E3"/>
<circle cx="30" cy="6" r="6" fill="#E3E3E3"/>
<circle cx="269" cy="131" r="6" fill="#E3E3E3"/>
<path d="M129 228C191.96 228 243 176.96 243 114C243 51.0395 191.96 0 129 0C66.0395 0 15 51.0395 15 114C15 176.96 66.0395 228 129 228Z" fill="white" fill-opacity="0.7"/>
<path d="M128.5 0C140.926 0 151 10.0736 151 22.5C151 34.9264 140.926 45 128.5 45C116.074 45 106 34.9264 106 22.5C106 10.0736 116.074 0 128.5 0ZM128 11C121.373 11 116 16.3726 116 23C116 29.6274 121.373 35 128 35C134.627 35 140 29.6274 140 23C140 16.3726 134.627 11 128 11Z" fill="#FDC604"/>
<path d="M128.05 203.1C152.378 203.1 172.1 183.378 172.1 159.05C172.1 134.722 152.378 115 128.05 115C103.722 115 84 134.722 84 159.05C84 183.378 103.722 203.1 128.05 203.1Z" fill="#E3E3E3"/>
<path d="M197.767 126.299V92.5038C197.767 74.0703 190.444 56.3917 177.41 43.3572C164.375 30.3227 146.697 23 128.263 23C109.83 23 92.151 30.3227 79.1165 43.3572C66.082 56.3917 58.7593 74.0703 58.7593 92.5038V126.299C58.7601 134.063 56.5637 141.669 52.424 148.237C48.2843 154.806 42.3702 160.069 35.3655 163.418C33.7555 164.184 32.3965 165.393 31.4466 166.902C30.4967 168.411 29.9951 170.159 30 171.942V172.125C29.9988 172.769 30.1247 173.407 30.3703 174.003C30.6159 174.598 30.9765 175.139 31.4315 175.595C31.8865 176.051 32.4269 176.412 33.0218 176.659C33.6168 176.906 34.2545 177.033 34.8985 177.033H221.619C222.263 177.033 222.9 176.906 223.495 176.659C224.09 176.412 224.631 176.051 225.086 175.595C225.541 175.139 225.901 174.598 226.147 174.003C226.393 173.407 226.518 172.769 226.517 172.125V171.942C226.518 170.165 226.015 168.423 225.067 166.919C224.119 165.416 222.765 164.211 221.161 163.445C214.152 160.094 208.235 154.827 204.095 148.253C199.955 141.68 197.761 134.068 197.767 126.299Z" fill="#F5F5F5"/>
<path fill-rule="evenodd" clip-rule="evenodd" d="M227 177H30V171H227V177Z" fill="#FDC604"/>
<path d="M184 87C199.464 87 212 74.464 212 59C212 43.536 199.464 31 184 31C168.536 31 156 43.536 156 59C156 74.464 168.536 87 184 87Z" fill="#E3E3E3"/>
<path d="M177 58.9892C177 56.5056 177.568 54.5532 178.703 53.1319C179.854 51.7106 181.62 51 184 51C186.364 51 188.122 51.7178 189.273 53.1534C190.424 54.5747 191 56.52 191 58.9892C191 61.4729 190.424 63.4325 189.273 64.8681C188.122 66.2894 186.364 67 184 67C181.62 67 179.854 66.2894 178.703 64.8681C177.568 63.4325 177 61.4729 177 58.9892ZM185.89 58.9892C185.89 57.8407 185.766 56.9794 185.517 56.4051C185.268 55.8165 184.762 55.5222 184 55.5222C183.222 55.5222 182.709 55.8165 182.46 56.4051C182.211 56.9794 182.087 57.8407 182.087 58.9892C182.087 60.1521 182.211 61.0278 182.46 61.6164C182.709 62.1907 183.222 62.4778 184 62.4778C184.762 62.4778 185.268 62.1907 185.517 61.6164C185.766 61.0278 185.89 60.1521 185.89 58.9892Z" fill="#CE1126"/>
<path fill-rule="evenodd" clip-rule="evenodd" d="M74.1084 192.302C69.3178 196.634 64.5408 200.879 59.8786 205.349C58.8721 206.307 58.8342 207.886 59.7864 208.882C60.7417 209.887 62.33 209.918 63.327 208.963C67.9667 204.522 72.7022 200.312 77.4608 196.011C78.486 195.078 78.5653 193.495 77.6482 192.478C76.7184 191.454 75.1336 191.369 74.1084 192.302Z" fill="#FDC604"/>
<path fill-rule="evenodd" clip-rule="evenodd" d="M182.324 192.304C187.088 196.637 191.838 200.883 196.473 205.353C197.474 206.311 197.503 207.89 196.547 208.883C195.588 209.886 194.001 209.916 193.01 208.961C188.398 204.519 183.689 200.308 178.957 196.006C177.937 195.073 177.866 193.492 178.787 192.476C179.721 191.454 181.305 191.371 182.324 192.304Z" fill="#FDC604"/>
<path fill-rule="evenodd" clip-rule="evenodd" d="M125.152 220.296C125.076 226.741 124.945 233.117 125.057 239.56C125.076 240.947 126.208 242.043 127.584 242.017C128.969 241.995 130.07 240.851 130.046 239.474C129.94 233.066 130.069 226.744 130.146 220.343C130.158 218.96 129.052 217.832 127.684 217.817C126.303 217.807 125.165 218.913 125.152 220.296Z" fill="#FDC604"/>
</svg>
