<svg width="34" height="36" viewBox="0 0 34 36" fill="none" xmlns="http://www.w3.org/2000/svg">
<path d="M17 27.3081C14.5407 27.3081 12.1822 26.2927 10.4432 24.4852C8.70422 22.6777 7.72727 20.2261 7.72727 17.67C7.72727 15.1138 8.70422 12.6623 10.4432 10.8547C12.1822 9.04724 14.5407 8.0318 17 8.0318C19.4593 8.0318 21.8178 9.04724 23.5568 10.8547C25.2958 12.6623 26.2727 15.1138 26.2727 17.67C26.2727 20.2261 25.2958 22.6777 23.5568 24.4852C21.8178 26.2927 19.4593 27.3081 17 27.3081ZM17 24.0954C18.6395 24.0954 20.2119 23.4184 21.3712 22.2134C22.5305 21.0084 23.1818 19.3741 23.1818 17.67C23.1818 15.9658 22.5305 14.3315 21.3712 13.1265C20.2119 11.9215 18.6395 11.2445 17 11.2445C15.3605 11.2445 13.7881 11.9215 12.6288 13.1265C11.4695 14.3315 10.8182 15.9658 10.8182 17.67C10.8182 19.3741 11.4695 21.0084 12.6288 22.2134C13.7881 23.4184 15.3605 24.0954 17 24.0954ZM15.4545 0H18.5455V4.81908H15.4545V0ZM15.4545 30.5208H18.5455V35.3399H15.4545V30.5208ZM3.88682 6.31138L6.07209 4.03999L9.35 7.44708L7.16473 9.71847L3.88682 6.31138ZM24.65 27.8928L26.8353 25.6214L30.1132 29.0285L27.9279 31.2999L24.65 27.8928ZM27.9279 4.03839L30.1132 6.31138L26.8353 9.71847L24.65 7.44708L27.9279 4.03999V4.03839ZM7.16473 25.6214L9.35 27.8928L6.07209 31.2999L3.88682 29.0285L7.16473 25.6214ZM34 16.0636V19.2763H29.3636V16.0636H34ZM4.63636 16.0636V19.2763H0V16.0636H4.63636Z" fill="#C8CAD5"/>
</svg>
